# Wavefront OBJ file automatically generated by Tiled2Unity

# Vertices (Count = 306)
v 0 -0.400000005960464 0
v -0.400000005960464 -0.400000005960464 0
v -0.400000005960464 0 0
v 0 0 0
v -0.800000011920929 -0.400000005960464 0
v -0.800000011920929 0 0
v -1.20000004768372 -0.400000005960464 0
v -1.20000004768372 0 0
v -1.60000002384186 -0.400000005960464 0
v -1.60000002384186 0 0
v -2 -0.400000005960464 0
v -2 0 0
v -2.40000009536743 -0.400000005960464 0
v -2.40000009536743 0 0
v -2.79999995231628 -0.400000005960464 0
v -2.79999995231628 0 0
v -3.20000004768372 -0.400000005960464 0
v -3.20000004768372 0 0
v -3.60000014305115 -0.400000005960464 0
v -3.60000014305115 0 0
v -4 -0.400000005960464 0
v -4 0 0
v -4.40000009536743 -0.400000005960464 0
v -4.40000009536743 0 0
v -4.80000019073486 -0.400000005960464 0
v -4.80000019073486 0 0
v -5.20000028610229 -0.400000005960464 0
v -5.20000028610229 0 0
v -5.59999990463257 -0.400000005960464 0
v -5.59999990463257 0 0
v -6 -0.400000005960464 0
v -6 0 0
v -6.40000009536743 -0.400000005960464 0
v -6.40000009536743 0 0
v -6.80000019073486 -0.400000005960464 0
v -6.80000019073486 0 0
v -7.20000028610229 -0.400000005960464 0
v -7.20000028610229 0 0
v -7.59999990463257 -0.400000005960464 0
v -7.59999990463257 0 0
v -8 -0.400000005960464 0
v -8 0 0
v -8.40000057220459 -0.400000005960464 0
v -8.40000057220459 0 0
v -8.80000019073486 -0.400000005960464 0
v -8.80000019073486 0 0
v -9.19999980926514 -0.400000005960464 0
v -9.19999980926514 0 0
v -9.60000038146973 -0.400000005960464 0
v -9.60000038146973 0 0
v -10 -0.400000005960464 0
v -10 0 0
v -10.4000005722046 -0.400000005960464 0
v -10.4000005722046 0 0
v -10.8000001907349 -0.400000005960464 0
v -10.8000001907349 0 0
v -11.1999998092651 -0.400000005960464 0
v -11.1999998092651 0 0
v -11.6000003814697 -0.400000005960464 0
v -11.6000003814697 0 0
v -12 -0.400000005960464 0
v -12 0 0
v -12.4000005722046 -0.400000005960464 0
v -12.4000005722046 0 0
v -12.8000001907349 -0.400000005960464 0
v -12.8000001907349 0 0
v -13.1999998092651 -0.400000005960464 0
v -13.1999998092651 0 0
v -13.6000003814697 -0.400000005960464 0
v -13.6000003814697 0 0
v -14 -0.400000005960464 0
v -14 0 0
v -14.4000005722046 -0.400000005960464 0
v -14.4000005722046 0 0
v -14.8000001907349 -0.400000005960464 0
v -14.8000001907349 0 0
v -15.1999998092651 -0.400000005960464 0
v -15.1999998092651 0 0
v -15.6000003814697 -0.400000005960464 0
v -15.6000003814697 0 0
v -16 -0.400000005960464 0
v -16 0 0
v -16.3999996185303 -0.400000005960464 0
v -16.3999996185303 0 0
v -16.8000011444092 -0.400000005960464 0
v -16.8000011444092 0 0
v -17.2000007629395 -0.400000005960464 0
v -17.2000007629395 0 0
v -17.6000003814697 -0.400000005960464 0
v -17.6000003814697 0 0
v -18 -0.400000005960464 0
v -18 0 0
v -18.3999996185303 -0.400000005960464 0
v -18.3999996185303 0 0
v -18.8000011444092 -0.400000005960464 0
v -18.8000011444092 0 0
v -19.2000007629395 -0.400000005960464 0
v -19.2000007629395 0 0
v -19.6000003814697 -0.400000005960464 0
v -19.6000003814697 0 0
v -20 -0.400000005960464 0
v -20 0 0
v 0 -0.800000011920929 0
v -0.400000005960464 -0.800000011920929 0
v -0.800000011920929 -0.800000011920929 0
v -1.20000004768372 -0.800000011920929 0
v -1.60000002384186 -0.800000011920929 0
v -2 -0.800000011920929 0
v -2.40000009536743 -0.800000011920929 0
v -2.79999995231628 -0.800000011920929 0
v -3.20000004768372 -0.800000011920929 0
v -3.60000014305115 -0.800000011920929 0
v -4 -0.800000011920929 0
v -4.40000009536743 -0.800000011920929 0
v -4.80000019073486 -0.800000011920929 0
v -5.20000028610229 -0.800000011920929 0
v -5.59999990463257 -0.800000011920929 0
v -6 -0.800000011920929 0
v -6.40000009536743 -0.800000011920929 0
v -6.80000019073486 -0.800000011920929 0
v -7.20000028610229 -0.800000011920929 0
v -7.59999990463257 -0.800000011920929 0
v -8 -0.800000011920929 0
v -8.40000057220459 -0.800000011920929 0
v -8.80000019073486 -0.800000011920929 0
v -9.19999980926514 -0.800000011920929 0
v -9.60000038146973 -0.800000011920929 0
v -10 -0.800000011920929 0
v -10.4000005722046 -0.800000011920929 0
v -10.8000001907349 -0.800000011920929 0
v -11.1999998092651 -0.800000011920929 0
v -11.6000003814697 -0.800000011920929 0
v -12 -0.800000011920929 0
v -12.4000005722046 -0.800000011920929 0
v -12.8000001907349 -0.800000011920929 0
v -13.1999998092651 -0.800000011920929 0
v -13.6000003814697 -0.800000011920929 0
v -14 -0.800000011920929 0
v -14.4000005722046 -0.800000011920929 0
v -14.8000001907349 -0.800000011920929 0
v -15.1999998092651 -0.800000011920929 0
v -15.6000003814697 -0.800000011920929 0
v -16 -0.800000011920929 0
v -16.3999996185303 -0.800000011920929 0
v -16.8000011444092 -0.800000011920929 0
v -17.2000007629395 -0.800000011920929 0
v -17.6000003814697 -0.800000011920929 0
v -18 -0.800000011920929 0
v -18.3999996185303 -0.800000011920929 0
v -18.8000011444092 -0.800000011920929 0
v -19.2000007629395 -0.800000011920929 0
v -19.6000003814697 -0.800000011920929 0
v -20 -0.800000011920929 0
v 0 -7.59999990463257 0
v -0.400000005960464 -7.59999990463257 0
v -0.400000005960464 -7.20000028610229 0
v 0 -7.20000028610229 0
v -0.800000011920929 -7.59999990463257 0
v -0.800000011920929 -7.20000028610229 0
v -1.20000004768372 -7.59999990463257 0
v -1.20000004768372 -7.20000028610229 0
v -1.60000002384186 -7.59999990463257 0
v -1.60000002384186 -7.20000028610229 0
v -2 -7.59999990463257 0
v -2 -7.20000028610229 0
v -2.40000009536743 -7.59999990463257 0
v -2.40000009536743 -7.20000028610229 0
v -2.79999995231628 -7.59999990463257 0
v -2.79999995231628 -7.20000028610229 0
v -3.20000004768372 -7.59999990463257 0
v -3.20000004768372 -7.20000028610229 0
v -3.60000014305115 -7.59999990463257 0
v -3.60000014305115 -7.20000028610229 0
v -4 -7.59999990463257 0
v -4 -7.20000028610229 0
v -4.40000009536743 -7.59999990463257 0
v -4.40000009536743 -7.20000028610229 0
v -4.80000019073486 -7.59999990463257 0
v -4.80000019073486 -7.20000028610229 0
v -5.20000028610229 -7.59999990463257 0
v -5.20000028610229 -7.20000028610229 0
v -5.59999990463257 -7.59999990463257 0
v -5.59999990463257 -7.20000028610229 0
v -6 -7.59999990463257 0
v -6 -7.20000028610229 0
v -6.40000009536743 -7.59999990463257 0
v -6.40000009536743 -7.20000028610229 0
v -6.80000019073486 -7.59999990463257 0
v -6.80000019073486 -7.20000028610229 0
v -7.20000028610229 -7.59999990463257 0
v -7.20000028610229 -7.20000028610229 0
v -7.59999990463257 -7.59999990463257 0
v -7.59999990463257 -7.20000028610229 0
v -8 -7.59999990463257 0
v -8 -7.20000028610229 0
v -8.40000057220459 -7.59999990463257 0
v -8.40000057220459 -7.20000028610229 0
v -8.80000019073486 -7.59999990463257 0
v -8.80000019073486 -7.20000028610229 0
v -9.19999980926514 -7.59999990463257 0
v -9.19999980926514 -7.20000028610229 0
v -9.60000038146973 -7.59999990463257 0
v -9.60000038146973 -7.20000028610229 0
v -10 -7.59999990463257 0
v -10 -7.20000028610229 0
v -10.4000005722046 -7.59999990463257 0
v -10.4000005722046 -7.20000028610229 0
v -10.8000001907349 -7.59999990463257 0
v -10.8000001907349 -7.20000028610229 0
v -11.1999998092651 -7.59999990463257 0
v -11.1999998092651 -7.20000028610229 0
v -11.6000003814697 -7.59999990463257 0
v -11.6000003814697 -7.20000028610229 0
v -12 -7.59999990463257 0
v -12 -7.20000028610229 0
v -12.4000005722046 -7.59999990463257 0
v -12.4000005722046 -7.20000028610229 0
v -12.8000001907349 -7.59999990463257 0
v -12.8000001907349 -7.20000028610229 0
v -13.1999998092651 -7.59999990463257 0
v -13.1999998092651 -7.20000028610229 0
v -13.6000003814697 -7.59999990463257 0
v -13.6000003814697 -7.20000028610229 0
v -14 -7.59999990463257 0
v -14 -7.20000028610229 0
v -14.4000005722046 -7.59999990463257 0
v -14.4000005722046 -7.20000028610229 0
v -14.8000001907349 -7.59999990463257 0
v -14.8000001907349 -7.20000028610229 0
v -15.1999998092651 -7.59999990463257 0
v -15.1999998092651 -7.20000028610229 0
v -15.6000003814697 -7.59999990463257 0
v -15.6000003814697 -7.20000028610229 0
v -16 -7.59999990463257 0
v -16 -7.20000028610229 0
v -16.3999996185303 -7.59999990463257 0
v -16.3999996185303 -7.20000028610229 0
v -16.8000011444092 -7.59999990463257 0
v -16.8000011444092 -7.20000028610229 0
v -17.2000007629395 -7.59999990463257 0
v -17.2000007629395 -7.20000028610229 0
v -17.6000003814697 -7.59999990463257 0
v -17.6000003814697 -7.20000028610229 0
v -18 -7.59999990463257 0
v -18 -7.20000028610229 0
v -18.3999996185303 -7.59999990463257 0
v -18.3999996185303 -7.20000028610229 0
v -18.8000011444092 -7.59999990463257 0
v -18.8000011444092 -7.20000028610229 0
v -19.2000007629395 -7.59999990463257 0
v -19.2000007629395 -7.20000028610229 0
v -19.6000003814697 -7.59999990463257 0
v -19.6000003814697 -7.20000028610229 0
v -20 -7.59999990463257 0
v -20 -7.20000028610229 0
v 0 -8 0
v -0.400000005960464 -8 0
v -0.800000011920929 -8 0
v -1.20000004768372 -8 0
v -1.60000002384186 -8 0
v -2 -8 0
v -2.40000009536743 -8 0
v -2.79999995231628 -8 0
v -3.20000004768372 -8 0
v -3.60000014305115 -8 0
v -4 -8 0
v -4.40000009536743 -8 0
v -4.80000019073486 -8 0
v -5.20000028610229 -8 0
v -5.59999990463257 -8 0
v -6 -8 0
v -6.40000009536743 -8 0
v -6.80000019073486 -8 0
v -7.20000028610229 -8 0
v -7.59999990463257 -8 0
v -8 -8 0
v -8.40000057220459 -8 0
v -8.80000019073486 -8 0
v -9.19999980926514 -8 0
v -9.60000038146973 -8 0
v -10 -8 0
v -10.4000005722046 -8 0
v -10.8000001907349 -8 0
v -11.1999998092651 -8 0
v -11.6000003814697 -8 0
v -12 -8 0
v -12.4000005722046 -8 0
v -12.8000001907349 -8 0
v -13.1999998092651 -8 0
v -13.6000003814697 -8 0
v -14 -8 0
v -14.4000005722046 -8 0
v -14.8000001907349 -8 0
v -15.1999998092651 -8 0
v -15.6000003814697 -8 0
v -16 -8 0
v -16.3999996185303 -8 0
v -16.8000011444092 -8 0
v -17.2000007629395 -8 0
v -17.6000003814697 -8 0
v -18 -8 0
v -18.3999996185303 -8 0
v -18.8000011444092 -8 0
v -19.2000007629395 -8 0
v -19.6000003814697 -8 0
v -20 -8 0

# Texture Coorindates (Count = 64)
vt 0.6563721 0.5688721
vt 0.6639404 0.5688721
vt 0.6639404 0.5748779
vt 0.6563721 0.5748779
vt 0.6641846 0.5688721
vt 0.6717529 0.5688721
vt 0.6717529 0.5748779
vt 0.6641846 0.5748779
vt 0.6719971 0.5688721
vt 0.6795654 0.5688721
vt 0.6795654 0.5748779
vt 0.6719971 0.5748779
vt 0.6798096 0.5688721
vt 0.6873779 0.5688721
vt 0.6873779 0.5748779
vt 0.6798096 0.5748779
vt 0.6563721 0.5626221
vt 0.6639404 0.5626221
vt 0.6639404 0.568628
vt 0.6563721 0.568628
vt 0.6641846 0.5626221
vt 0.6717529 0.5626221
vt 0.6717529 0.568628
vt 0.6641846 0.568628
vt 0.6719971 0.5626221
vt 0.6795654 0.5626221
vt 0.6795654 0.568628
vt 0.6719971 0.568628
vt 0.6798096 0.5626221
vt 0.6873779 0.5626221
vt 0.6873779 0.568628
vt 0.6798096 0.568628
vt 0.6563721 0.681372
vt 0.6639404 0.681372
vt 0.6639404 0.6873779
vt 0.6563721 0.6873779
vt 0.6641846 0.681372
vt 0.6717529 0.681372
vt 0.6717529 0.6873779
vt 0.6641846 0.6873779
vt 0.6719971 0.681372
vt 0.6795654 0.681372
vt 0.6795654 0.6873779
vt 0.6719971 0.6873779
vt 0.6798096 0.681372
vt 0.6873779 0.681372
vt 0.6873779 0.6873779
vt 0.6798096 0.6873779
vt 0.6563721 0.6751221
vt 0.6639404 0.6751221
vt 0.6639404 0.6811279
vt 0.6563721 0.6811279
vt 0.6641846 0.6751221
vt 0.6717529 0.6751221
vt 0.6717529 0.6811279
vt 0.6641846 0.6811279
vt 0.6719971 0.6751221
vt 0.6795654 0.6751221
vt 0.6795654 0.6811279
vt 0.6719971 0.6811279
vt 0.6798096 0.6751221
vt 0.6873779 0.6751221
vt 0.6873779 0.6811279
vt 0.6798096 0.6811279

# Normal
vn 0 0 -1

# Groups (Count = 1)
g mesh_[00]_[00]
f  1/1/1  2/2/1  3/3/1  4/4/1 
f  2/5/1  5/6/1  6/7/1  3/8/1 
f  5/9/1  7/10/1  8/11/1  6/12/1 
f  7/13/1  9/14/1  10/15/1  8/16/1 
f  9/1/1  11/2/1  12/3/1  10/4/1 
f  11/5/1  13/6/1  14/7/1  12/8/1 
f  13/9/1  15/10/1  16/11/1  14/12/1 
f  15/13/1  17/14/1  18/15/1  16/16/1 
f  17/1/1  19/2/1  20/3/1  18/4/1 
f  19/5/1  21/6/1  22/7/1  20/8/1 
f  21/9/1  23/10/1  24/11/1  22/12/1 
f  23/1/1  25/2/1  26/3/1  24/4/1 
f  25/5/1  27/6/1  28/7/1  26/8/1 
f  27/9/1  29/10/1  30/11/1  28/12/1 
f  29/13/1  31/14/1  32/15/1  30/16/1 
f  31/1/1  33/2/1  34/3/1  32/4/1 
f  33/5/1  35/6/1  36/7/1  34/8/1 
f  35/9/1  37/10/1  38/11/1  36/12/1 
f  37/13/1  39/14/1  40/15/1  38/16/1 
f  39/1/1  41/2/1  42/3/1  40/4/1 
f  41/5/1  43/6/1  44/7/1  42/8/1 
f  43/9/1  45/10/1  46/11/1  44/12/1 
f  45/13/1  47/14/1  48/15/1  46/16/1 
f  47/1/1  49/2/1  50/3/1  48/4/1 
f  49/5/1  51/6/1  52/7/1  50/8/1 
f  51/9/1  53/10/1  54/11/1  52/12/1 
f  53/13/1  55/14/1  56/15/1  54/16/1 
f  55/1/1  57/2/1  58/3/1  56/4/1 
f  57/1/1  59/2/1  60/3/1  58/4/1 
f  59/5/1  61/6/1  62/7/1  60/8/1 
f  61/9/1  63/10/1  64/11/1  62/12/1 
f  63/1/1  65/2/1  66/3/1  64/4/1 
f  65/5/1  67/6/1  68/7/1  66/8/1 
f  67/9/1  69/10/1  70/11/1  68/12/1 
f  69/1/1  71/2/1  72/3/1  70/4/1 
f  71/5/1  73/6/1  74/7/1  72/8/1 
f  73/9/1  75/10/1  76/11/1  74/12/1 
f  75/13/1  77/14/1  78/15/1  76/16/1 
f  77/9/1  79/10/1  80/11/1  78/12/1 
f  79/13/1  81/14/1  82/15/1  80/16/1 
f  81/1/1  83/2/1  84/3/1  82/4/1 
f  83/5/1  85/6/1  86/7/1  84/8/1 
f  85/9/1  87/10/1  88/11/1  86/12/1 
f  87/13/1  89/14/1  90/15/1  88/16/1 
f  89/1/1  91/2/1  92/3/1  90/4/1 
f  91/5/1  93/6/1  94/7/1  92/8/1 
f  93/1/1  95/2/1  96/3/1  94/4/1 
f  95/5/1  97/6/1  98/7/1  96/8/1 
f  97/9/1  99/10/1  100/11/1  98/12/1 
f  99/13/1  101/14/1  102/15/1  100/16/1 
f  103/17/1  104/18/1  2/19/1  1/20/1 
f  104/21/1  105/22/1  5/23/1  2/24/1 
f  105/25/1  106/26/1  7/27/1  5/28/1 
f  106/29/1  107/30/1  9/31/1  7/32/1 
f  107/17/1  108/18/1  11/19/1  9/20/1 
f  108/21/1  109/22/1  13/23/1  11/24/1 
f  109/25/1  110/26/1  15/27/1  13/28/1 
f  110/29/1  111/30/1  17/31/1  15/32/1 
f  111/17/1  112/18/1  19/19/1  17/20/1 
f  112/21/1  113/22/1  21/23/1  19/24/1 
f  113/25/1  114/26/1  23/27/1  21/28/1 
f  114/17/1  115/18/1  25/19/1  23/20/1 
f  115/21/1  116/22/1  27/23/1  25/24/1 
f  116/25/1  117/26/1  29/27/1  27/28/1 
f  117/29/1  118/30/1  31/31/1  29/32/1 
f  118/17/1  119/18/1  33/19/1  31/20/1 
f  119/21/1  120/22/1  35/23/1  33/24/1 
f  120/25/1  121/26/1  37/27/1  35/28/1 
f  121/29/1  122/30/1  39/31/1  37/32/1 
f  122/17/1  123/18/1  41/19/1  39/20/1 
f  123/21/1  124/22/1  43/23/1  41/24/1 
f  124/25/1  125/26/1  45/27/1  43/28/1 
f  125/29/1  126/30/1  47/31/1  45/32/1 
f  126/17/1  127/18/1  49/19/1  47/20/1 
f  127/21/1  128/22/1  51/23/1  49/24/1 
f  128/25/1  129/26/1  53/27/1  51/28/1 
f  129/29/1  130/30/1  55/31/1  53/32/1 
f  130/17/1  131/18/1  57/19/1  55/20/1 
f  131/17/1  132/18/1  59/19/1  57/20/1 
f  132/21/1  133/22/1  61/23/1  59/24/1 
f  133/25/1  134/26/1  63/27/1  61/28/1 
f  134/17/1  135/18/1  65/19/1  63/20/1 
f  135/21/1  136/22/1  67/23/1  65/24/1 
f  136/25/1  137/26/1  69/27/1  67/28/1 
f  137/17/1  138/18/1  71/19/1  69/20/1 
f  138/21/1  139/22/1  73/23/1  71/24/1 
f  139/25/1  140/26/1  75/27/1  73/28/1 
f  140/29/1  141/30/1  77/31/1  75/32/1 
f  141/25/1  142/26/1  79/27/1  77/28/1 
f  142/29/1  143/30/1  81/31/1  79/32/1 
f  143/17/1  144/18/1  83/19/1  81/20/1 
f  144/21/1  145/22/1  85/23/1  83/24/1 
f  145/25/1  146/26/1  87/27/1  85/28/1 
f  146/29/1  147/30/1  89/31/1  87/32/1 
f  147/17/1  148/18/1  91/19/1  89/20/1 
f  148/21/1  149/22/1  93/23/1  91/24/1 
f  149/17/1  150/18/1  95/19/1  93/20/1 
f  150/21/1  151/22/1  97/23/1  95/24/1 
f  151/25/1  152/26/1  99/27/1  97/28/1 
f  152/29/1  153/30/1  101/31/1  99/32/1 
f  154/33/1  155/34/1  156/35/1  157/36/1 
f  155/37/1  158/38/1  159/39/1  156/40/1 
f  158/41/1  160/42/1  161/43/1  159/44/1 
f  160/45/1  162/46/1  163/47/1  161/48/1 
f  162/33/1  164/34/1  165/35/1  163/36/1 
f  164/37/1  166/38/1  167/39/1  165/40/1 
f  166/41/1  168/42/1  169/43/1  167/44/1 
f  168/45/1  170/46/1  171/47/1  169/48/1 
f  170/33/1  172/34/1  173/35/1  171/36/1 
f  172/33/1  174/34/1  175/35/1  173/36/1 
f  174/37/1  176/38/1  177/39/1  175/40/1 
f  176/41/1  178/42/1  179/43/1  177/44/1 
f  178/45/1  180/46/1  181/47/1  179/48/1 
f  180/41/1  182/42/1  183/43/1  181/44/1 
f  182/33/1  184/34/1  185/35/1  183/36/1 
f  184/37/1  186/38/1  187/39/1  185/40/1 
f  186/41/1  188/42/1  189/43/1  187/44/1 
f  188/45/1  190/46/1  191/47/1  189/48/1 
f  190/33/1  192/34/1  193/35/1  191/36/1 
f  192/37/1  194/38/1  195/39/1  193/40/1 
f  194/33/1  196/34/1  197/35/1  195/36/1 
f  196/37/1  198/38/1  199/39/1  197/40/1 
f  198/41/1  200/42/1  201/43/1  199/44/1 
f  200/45/1  202/46/1  203/47/1  201/48/1 
f  202/33/1  204/34/1  205/35/1  203/36/1 
f  204/33/1  206/34/1  207/35/1  205/36/1 
f  206/37/1  208/38/1  209/39/1  207/40/1 
f  208/41/1  210/42/1  211/43/1  209/44/1 
f  210/45/1  212/46/1  213/47/1  211/48/1 
f  212/41/1  214/42/1  215/43/1  213/44/1 
f  214/45/1  216/46/1  217/47/1  215/48/1 
f  216/33/1  218/34/1  219/35/1  217/36/1 
f  218/33/1  220/34/1  221/35/1  219/36/1 
f  220/33/1  222/34/1  223/35/1  221/36/1 
f  222/33/1  224/34/1  225/35/1  223/36/1 
f  224/37/1  226/38/1  227/39/1  225/40/1 
f  226/41/1  228/42/1  229/43/1  227/44/1 
f  228/45/1  230/46/1  231/47/1  229/48/1 
f  230/33/1  232/34/1  233/35/1  231/36/1 
f  232/33/1  234/34/1  235/35/1  233/36/1 
f  234/37/1  236/38/1  237/39/1  235/40/1 
f  236/41/1  238/42/1  239/43/1  237/44/1 
f  238/45/1  240/46/1  241/47/1  239/48/1 
f  240/37/1  242/38/1  243/39/1  241/40/1 
f  242/41/1  244/42/1  245/43/1  243/44/1 
f  244/45/1  246/46/1  247/47/1  245/48/1 
f  246/33/1  248/34/1  249/35/1  247/36/1 
f  248/37/1  250/38/1  251/39/1  249/40/1 
f  250/41/1  252/42/1  253/43/1  251/44/1 
f  252/45/1  254/46/1  255/47/1  253/48/1 
f  256/49/1  257/50/1  155/51/1  154/52/1 
f  257/53/1  258/54/1  158/55/1  155/56/1 
f  258/57/1  259/58/1  160/59/1  158/60/1 
f  259/61/1  260/62/1  162/63/1  160/64/1 
f  260/49/1  261/50/1  164/51/1  162/52/1 
f  261/53/1  262/54/1  166/55/1  164/56/1 
f  262/57/1  263/58/1  168/59/1  166/60/1 
f  263/61/1  264/62/1  170/63/1  168/64/1 
f  264/49/1  265/50/1  172/51/1  170/52/1 
f  265/49/1  266/50/1  174/51/1  172/52/1 
f  266/53/1  267/54/1  176/55/1  174/56/1 
f  267/57/1  268/58/1  178/59/1  176/60/1 
f  268/61/1  269/62/1  180/63/1  178/64/1 
f  269/57/1  270/58/1  182/59/1  180/60/1 
f  270/49/1  271/50/1  184/51/1  182/52/1 
f  271/53/1  272/54/1  186/55/1  184/56/1 
f  272/57/1  273/58/1  188/59/1  186/60/1 
f  273/61/1  274/62/1  190/63/1  188/64/1 
f  274/49/1  275/50/1  192/51/1  190/52/1 
f  275/53/1  276/54/1  194/55/1  192/56/1 
f  276/49/1  277/50/1  196/51/1  194/52/1 
f  277/53/1  278/54/1  198/55/1  196/56/1 
f  278/57/1  279/58/1  200/59/1  198/60/1 
f  279/61/1  280/62/1  202/63/1  200/64/1 
f  280/49/1  281/50/1  204/51/1  202/52/1 
f  281/49/1  282/50/1  206/51/1  204/52/1 
f  282/53/1  283/54/1  208/55/1  206/56/1 
f  283/57/1  284/58/1  210/59/1  208/60/1 
f  284/61/1  285/62/1  212/63/1  210/64/1 
f  285/57/1  286/58/1  214/59/1  212/60/1 
f  286/61/1  287/62/1  216/63/1  214/64/1 
f  287/49/1  288/50/1  218/51/1  216/52/1 
f  288/49/1  289/50/1  220/51/1  218/52/1 
f  289/49/1  290/50/1  222/51/1  220/52/1 
f  290/49/1  291/50/1  224/51/1  222/52/1 
f  291/53/1  292/54/1  226/55/1  224/56/1 
f  292/57/1  293/58/1  228/59/1  226/60/1 
f  293/61/1  294/62/1  230/63/1  228/64/1 
f  294/49/1  295/50/1  232/51/1  230/52/1 
f  295/49/1  296/50/1  234/51/1  232/52/1 
f  296/53/1  297/54/1  236/55/1  234/56/1 
f  297/57/1  298/58/1  238/59/1  236/60/1 
f  298/61/1  299/62/1  240/63/1  238/64/1 
f  299/53/1  300/54/1  242/55/1  240/56/1 
f  300/57/1  301/58/1  244/59/1  242/60/1 
f  301/61/1  302/62/1  246/63/1  244/64/1 
f  302/49/1  303/50/1  248/51/1  246/52/1 
f  303/53/1  304/54/1  250/55/1  248/56/1 
f  304/57/1  305/58/1  252/59/1  250/60/1 
f  305/61/1  306/62/1  254/63/1  252/64/1 
